<svg width="33" height="33" viewBox="0 0 33 33" fill="none" xmlns="http://www.w3.org/2000/svg">
<path d="M12.8333 17.3833H1.83333C1.59906 17.3833 1.37438 17.2903 1.20872 17.1246C1.04306 16.959 0.95 16.7343 0.95 16.5V1.83333C0.95 1.59906 1.04307 1.37438 1.20872 1.20872C1.37438 1.04307 1.59906 0.95 1.83333 0.95H12.8333C13.0676 0.95 13.2923 1.04307 13.4579 1.20872C13.6236 1.37438 13.7167 1.59906 13.7167 1.83333V16.5C13.7167 16.7343 13.6236 16.959 13.4579 17.1246C13.2923 17.2903 13.0676 17.3833 12.8333 17.3833ZM1.20872 31.7913C1.04306 31.6256 0.95 31.4009 0.95 31.1667V23.8333C0.95 23.5991 1.04306 23.3744 1.20872 23.2087C1.37438 23.0431 1.59906 22.95 1.83333 22.95H12.8333C13.0676 22.95 13.2923 23.0431 13.4579 23.2087C13.6236 23.3744 13.7167 23.5991 13.7167 23.8333V31.1667C13.7167 31.4009 13.6236 31.6256 13.4579 31.7913C13.2923 31.9569 13.0676 32.05 12.8333 32.05H1.83333C1.59906 32.05 1.37438 31.9569 1.20872 31.7913ZM19.5421 31.7913C19.3764 31.6256 19.2833 31.4009 19.2833 31.1667V18.3333C19.2833 18.0991 19.3764 17.8744 19.5421 17.7087C19.7077 17.5431 19.9324 17.45 20.1667 17.45H31.1667C31.4009 17.45 31.6256 17.5431 31.7913 17.7087C31.9569 17.8744 32.05 18.0991 32.05 18.3333V31.1667C32.05 31.4009 31.9569 31.6256 31.7913 31.7913C31.6256 31.9569 31.4009 32.05 31.1667 32.05H20.1667C19.9324 32.05 19.7077 31.9569 19.5421 31.7913ZM31.1667 11.8833H20.1667C19.9324 11.8833 19.7077 11.7903 19.5421 11.6246C19.3764 11.459 19.2833 11.2343 19.2833 11V1.83333C19.2833 1.59906 19.3764 1.37438 19.5421 1.20872C19.7077 1.04307 19.9324 0.95 20.1667 0.95H31.1667C31.4009 0.95 31.6256 1.04306 31.7913 1.20872C31.9569 1.37438 32.05 1.59906 32.05 1.83333V11C32.05 11.2343 31.9569 11.459 31.7913 11.6246C31.6256 11.7903 31.4009 11.8833 31.1667 11.8833Z" stroke="#161831" stroke-width="1.9"/>
</svg>
