<svg width="28" height="28" viewBox="0 0 28 28" fill="none" xmlns="http://www.w3.org/2000/svg">
<path d="M11 0C4.935 0 0 4.935 0 11C0 17.065 4.935 22 11 22C17.065 22 22 17.065 22 11C22 4.935 17.065 0 11 0ZM11 20C6.038 20 2 15.963 2 11C2 6.038 6.038 2 11 2C15.963 2 20 6.038 20 11C20 15.963 15.963 20 11 20Z" fill="black"/>
<path d="M27.7073 26.293L21.7063 20.293C21.3153 19.902 20.6833 19.902 20.2923 20.293C19.9013 20.684 19.9013 21.316 20.2923 21.707L26.2933 27.707C26.4883 27.902 26.7443 28 27.0003 28C27.2563 28 27.5123 27.902 27.7073 27.707C28.0983 27.316 28.0983 26.684 27.7073 26.293Z" fill="black"/>
<path d="M18 11.5641H12.4359V6H11V13H18V11.5641Z" fill="black"/>
<path d="M6 11H4V13H6V11Z" fill="black"/>
</svg>
