<svg width="33" height="33" viewBox="0 0 33 33" fill="none" xmlns="http://www.w3.org/2000/svg">
<path d="M22.066 28H10.9364C10.6163 28 10.3092 27.8689 10.0829 27.6356C9.85649 27.4022 9.72932 27.0857 9.72932 26.7557V15.4006H5.20748C4.97396 15.4007 4.74544 15.331 4.54961 15.1999C4.35377 15.0688 4.19904 14.8819 4.10415 14.662C4.00926 14.442 3.9783 14.1985 4.01501 13.9608C4.05173 13.723 4.15454 13.5014 4.311 13.3227L15.6039 0.411487C15.7171 0.281964 15.8554 0.178404 16.0099 0.107517C16.1645 0.0366304 16.3317 0 16.5008 0C16.6699 0 16.8372 0.0366304 16.9917 0.107517C17.1462 0.178404 17.2845 0.281964 17.3977 0.411487L28.689 13.3227C28.8455 13.5014 28.9483 13.723 28.985 13.9608C29.0217 14.1985 28.9907 14.442 28.8959 14.662C28.801 14.8819 28.6462 15.0688 28.4504 15.1999C28.2546 15.331 28.026 15.4007 27.7925 15.4006H23.2731V26.7557C23.2731 27.0857 23.1459 27.4022 22.9195 27.6356C22.6932 27.8689 22.3861 28 22.066 28ZM12.1435 25.5115H20.8589V14.1564C20.8589 13.8264 20.9861 13.5099 21.2124 13.2766C21.4388 13.0432 21.7458 12.9121 22.066 12.9121H25.0789L16.4996 3.10323L7.92107 12.9121H10.9364C11.2566 12.9121 11.5636 13.0432 11.79 13.2766C12.0164 13.5099 12.1435 13.8264 12.1435 14.1564V25.5115Z" fill="#262847"/>
<path d="M27.6404 33H5.36045C3.93924 32.9984 2.57667 32.4172 1.57172 31.3839C0.566769 30.3505 0.00152106 28.9494 0 27.4881V24.2661C0 23.9303 0.12973 23.6083 0.360652 23.3708C0.591574 23.1334 0.90477 23 1.23134 23C1.55792 23 1.87111 23.1334 2.10203 23.3708C2.33296 23.6083 2.46269 23.9303 2.46269 24.2661V27.4881C2.46356 28.278 2.76913 29.0354 3.31238 29.594C3.85563 30.1526 4.59218 30.4668 5.36045 30.4677H27.6404C28.4086 30.4668 29.145 30.1526 29.6881 29.594C30.2313 29.0353 30.5367 28.278 30.5373 27.4881V24.2661C30.5373 23.9303 30.667 23.6083 30.898 23.3708C31.1289 23.1334 31.4421 23 31.7687 23C32.0952 23 32.4084 23.1334 32.6393 23.3708C32.8703 23.6083 33 23.9303 33 24.2661V27.4881C32.9985 28.9493 32.4333 30.3502 31.4286 31.3836C30.4238 32.4169 29.0614 32.9982 27.6404 33Z" fill="#262847"/>
</svg>
