<svg width="33" height="33" viewBox="0 0 33 33" fill="none" xmlns="http://www.w3.org/2000/svg">
<path d="M20.9 31.9H19.8C19.8 32.3167 20.0354 32.6975 20.4081 32.8838C20.7807 33.0702 21.2267 33.0299 21.56 32.78L20.9 31.9ZM25.3 28.6L25.96 27.72C25.5688 27.4267 25.0312 27.4267 24.64 27.72L25.3 28.6ZM29.7 31.9L29.04 32.78C29.3733 33.0299 29.8192 33.0702 30.1919 32.8838C30.5646 32.6975 30.8 32.3167 30.8 31.9H29.7ZM25.3 24.2C22.2625 24.2 19.8 21.7376 19.8 18.7H17.6C17.6 22.9526 21.0474 26.4 25.3 26.4V24.2ZM30.8 18.7C30.8 21.7376 28.3375 24.2 25.3 24.2V26.4C29.5526 26.4 33 22.9526 33 18.7H30.8ZM25.3 13.2C28.3375 13.2 30.8 15.6624 30.8 18.7H33C33 14.4474 29.5526 11 25.3 11V13.2ZM25.3 11C21.0474 11 17.6 14.4474 17.6 18.7H19.8C19.8 15.6624 22.2625 13.2 25.3 13.2V11ZM19.8 23.1V31.9H22V23.1H19.8ZM21.56 32.78L25.96 29.48L24.64 27.72L20.24 31.02L21.56 32.78ZM24.64 29.48L29.04 32.78L30.36 31.02L25.96 27.72L24.64 29.48ZM30.8 31.9V23.1H28.6V31.9H30.8ZM33 11V3.3H30.8V11H33ZM29.7 0H3.3V2.2H29.7V0ZM0 3.3V29.7H2.2V3.3H0ZM3.3 33H17.6V30.8H3.3V33ZM0 29.7C0 31.5225 1.47746 33 3.3 33V30.8C2.69249 30.8 2.2 30.3074 2.2 29.7H0ZM3.3 0C1.47746 0 0 1.47746 0 3.3H2.2C2.2 2.69249 2.69249 2.2 3.3 2.2V0ZM33 3.3C33 1.47746 31.5225 0 29.7 0V2.2C30.3074 2.2 30.8 2.69249 30.8 3.3H33ZM6.6 11H17.6V8.8H6.6V11ZM6.6 17.6H13.2V15.4H6.6V17.6Z" fill="#262847"/>
</svg>
