<svg width="33" height="33" viewBox="0 0 33 33" fill="none" xmlns="http://www.w3.org/2000/svg">
<path d="M11.55 5.775C11.55 8.68435 9.39865 11.0912 6.6 11.4915V21.45C6.6 24.1839 8.8162 26.4 11.55 26.4H15.9873L14.3875 24.8C13.9042 24.3167 13.9042 23.5333 14.3875 23.05C14.8708 22.5667 15.6542 22.5667 16.1375 23.05L19.85 26.7625C20.3333 27.2458 20.3333 28.0292 19.85 28.5125L16.1375 32.225C15.6542 32.7083 14.8708 32.7083 14.3875 32.225C13.9042 31.7417 13.9042 30.9583 14.3875 30.475L15.9873 28.875H11.55C7.44929 28.875 4.125 25.5507 4.125 21.45V11.3438L4.12543 11.311C1.73973 10.6012 0 8.39126 0 5.775C0 2.58555 2.58555 0 5.775 0C8.96445 0 11.55 2.58555 11.55 5.775ZM9.075 5.775C9.075 3.95246 7.59754 2.475 5.775 2.475C3.95246 2.475 2.475 3.95246 2.475 5.775C2.475 7.59754 3.95246 9.075 5.775 9.075C7.59754 9.075 9.075 7.59754 9.075 5.775ZM33 27.225C33 30.4145 30.4145 33 27.225 33C24.0356 33 21.45 30.4145 21.45 27.225C21.45 24.3157 23.6014 21.9089 26.4 21.5084V11.55C26.4 8.8162 24.1839 6.6 21.45 6.6H18.2502L19.85 8.19995C20.3333 8.68322 20.3333 9.46678 19.85 9.95004C19.3667 10.4333 18.5833 10.4333 18.1 9.95004L14.3875 6.23755C13.9042 5.75428 13.9042 4.97072 14.3875 4.48746L18.1 0.774956C18.5833 0.291687 19.3667 0.291687 19.85 0.774956C20.3333 1.25822 20.3333 2.04178 19.85 2.52504L18.2502 4.125H21.45C25.5507 4.125 28.875 7.44929 28.875 11.55V21.6562L28.8745 21.6891C31.2602 22.3989 33 24.6088 33 27.225ZM30.525 27.225C30.525 25.4024 29.0476 23.925 27.225 23.925C25.4024 23.925 23.925 25.4024 23.925 27.225C23.925 29.0476 25.4024 30.525 27.225 30.525C29.0476 30.525 30.525 29.0476 30.525 27.225Z" fill="#212121"/>
</svg>
