<svg width="33" height="33" viewBox="0 0 33 33" fill="none" xmlns="http://www.w3.org/2000/svg">
<path d="M1.83333 1H12.8333C13.0543 1 13.2663 1.0878 13.4226 1.24408C13.5789 1.40036 13.6667 1.61232 13.6667 1.83333V12.8333C13.6667 13.0543 13.5789 13.2663 13.4226 13.4226C13.2663 13.5789 13.0543 13.6667 12.8333 13.6667H1.83333C1.61232 13.6667 1.40036 13.5789 1.24408 13.4226C1.0878 13.2663 1 13.0543 1 12.8333V1.83333C1 1.61232 1.0878 1.40036 1.24408 1.24408C1.40036 1.0878 1.61232 1 1.83333 1ZM19.5774 19.5774C19.7337 19.4211 19.9457 19.3333 20.1667 19.3333H31.1667C31.3877 19.3333 31.5996 19.4211 31.7559 19.5774C31.9122 19.7337 32 19.9457 32 20.1667V31.1667C32 31.3877 31.9122 31.5996 31.7559 31.7559C31.5996 31.9122 31.3877 32 31.1667 32H20.1667C19.9457 32 19.7337 31.9122 19.5774 31.7559C19.4211 31.5996 19.3333 31.3877 19.3333 31.1667V20.1667C19.3333 19.9457 19.4211 19.7337 19.5774 19.5774ZM19.3333 7.33333C19.3333 3.84128 22.1746 1 25.6667 1C29.1587 1 32 3.84128 32 7.33333C32 10.8254 29.1587 13.6667 25.6667 13.6667C22.1746 13.6667 19.3333 10.8254 19.3333 7.33333ZM1 25.6667C1 22.1746 3.84128 19.3333 7.33333 19.3333C10.8254 19.3333 13.6667 22.1746 13.6667 25.6667C13.6667 29.1587 10.8254 32 7.33333 32C3.84128 32 1 29.1587 1 25.6667Z" stroke="black" stroke-width="2"/>
</svg>
