<svg width="33" height="33" viewBox="0 0 33 33" fill="none" xmlns="http://www.w3.org/2000/svg">
<path d="M31.284 22.3929L24 15.3214L31.284 8.25L33 9.91179L27.432 15.3214L33 20.7311L31.284 22.3929Z" fill="#161831"/>
<path d="M24 33H21.6V27.1071C21.6 25.5443 20.9679 24.0454 19.8426 22.9403C18.7174 21.8351 17.1913 21.2143 15.6 21.2143H8.4C6.8087 21.2143 5.28258 21.8351 4.15736 22.9403C3.03214 24.0454 2.4 25.5443 2.4 27.1071V33H0V27.1071C0 24.9191 0.884997 22.8207 2.4603 21.2735C4.03561 19.7263 6.17218 18.8571 8.4 18.8571H15.6C17.8278 18.8571 19.9644 19.7263 21.5397 21.2735C23.115 22.8207 24 24.9191 24 27.1071V33Z" fill="#161831"/>
<path d="M12 2.35714C13.1867 2.35714 14.3467 2.70275 15.3334 3.35027C16.3201 3.99778 17.0891 4.91812 17.5433 5.9949C17.9974 7.07168 18.1162 8.25654 17.8847 9.39964C17.6532 10.5427 17.0817 11.5927 16.2426 12.4169C15.4035 13.241 14.3344 13.8023 13.1705 14.0296C12.0066 14.257 10.8002 14.1403 9.70388 13.6943C8.60752 13.2483 7.67045 12.493 7.01116 11.5239C6.35187 10.5548 5.99998 9.4155 5.99998 8.25C5.99998 6.68712 6.63212 5.18825 7.75734 4.08312C8.88256 2.978 10.4087 2.35714 12 2.35714ZM12 0C10.3386 0 8.71456 0.483854 7.33319 1.39038C5.95182 2.2969 4.87517 3.58537 4.23939 5.09286C3.60362 6.60035 3.43727 8.25915 3.76138 9.8595C4.0855 11.4598 4.88552 12.9298 6.06028 14.0836C7.23504 15.2374 8.73178 16.0232 10.3612 16.3415C11.9907 16.6598 13.6796 16.4964 15.2145 15.872C16.7494 15.2476 18.0613 14.1902 18.9843 12.8335C19.9073 11.4767 20.4 9.8817 20.4 8.25C20.4 6.06196 19.515 3.96354 17.9397 2.41637C16.3644 0.869194 14.2278 0 12 0Z" fill="#161831"/>
</svg>
